<svg id="eBfUyHbenVg1" xmlns="http://www.w3.org/2000/svg" xmlns:xlink="http://www.w3.org/1999/xlink" viewBox="50 190 420 100" shape-rendering="geometricPrecision" text-rendering="geometricPrecision" project-id="589c321e52d64091958b00b1427b0a7a" export-id="e8dc6ab91a3549ab87a159100f510793" cached="false"><g><path d="M310.74,280.32c-2.39-.59-6.54-3.08-7.81-4.59-1.76-2.1-3.42-5.57-4.05-8.54-.34-1.56-.54-8.25-.54-17.19v-14.65h5.08h5.13l.15,14.79c.15,13.82.2,14.84,1.17,16.46c2.93,4.98,11.04,5.66,15.43,1.32c3.32-3.32,3.52-4.49,3.71-19.24l.2-13.33h5.08h5.08v22.22v22.22h-4.64-4.64v-2.69c0-1.46-.15-2.69-.29-2.69-.15,0-1.51.98-3.03,2.15-4.25,3.27-5.66,3.81-10.35,4-2.29.1-4.83,0-5.66-.24h-.02Z" fill="#0153dc"/><path d="M402.69,280.27c-6.88-1.76-13.28-8.01-15.53-15.19-1.32-4.2-1.27-11.18.1-15.23c2-6.01,5.96-10.55,11.33-13.09c7.67-3.56,15.77-3.03,21.73,1.51c1.42,1.07,2.59,1.95,2.69,1.95.05,0,.05-5.27-.05-11.72l-.15-11.72h5.03h5.03l-.1,31.54-.05,31.59-4.69.2-4.69.24v-2.49c0-2.78-.68-3.22-2.25-1.46-.49.54-2.34,1.71-4.1,2.49-2.73,1.32-3.86,1.51-7.81,1.66-2.54.1-5.47-.05-6.49-.29v.01Zm12.65-9.96c4.64-2.15,7.52-6.93,7.52-12.5c0-7.91-4.74-13.48-11.96-14.06-4.3-.34-7.08.54-9.96,3.13-4.2,3.81-5.81,9.23-4.25,14.6c1.95,6.59,6.2,9.91,12.99,9.96c2.34.05,3.81-.24,5.66-1.12v-.01Z" fill="#0153dc"/><path d="M376.32,279.74c-4.25-.98-6.69-3.27-7.91-7.37-.63-2.15-.73-6.69-.73-29.05v-26.51h5.03h4.98v26.27c0,20.61.15,26.46.63,27.05.34.44,1.27.88,2.05,1.07l1.46.29v4.39v4.39l-1.81-.05c-1.03-.05-2.69-.24-3.71-.49l.01.01Z" fill="#0153dc"/><path d="M242.68,248.29v-31.49h15.28c12.21,0,15.87.15,18.16.73c8.3,2.2,12.94,7.96,12.94,16.11c0,4.59-1.17,7.37-4.44,10.6l-2.83,2.78l2.1,1.22c6.35,3.71,9.03,11.52,6.69,19.34-.93,2.98-1.51,3.96-3.61,6.05-2.83,2.78-6.59,4.79-10.5,5.62-1.61.34-8.59.54-18.16.54h-15.63v-31.49-.01Zm33.25,20.9c2.05-1.07,2.88-1.86,3.76-3.56c2.39-4.64.59-10.16-4-12.26-1.76-.78-3.27-.93-12.11-.93h-10.16v9.03v9.03h9.91c9.86,0,9.96,0,12.6-1.32v.01Zm-1.17-27.59c5.42-3.61,5.18-11.82-.49-14.45-2.2-1.07-6.05-1.32-15.82-1.17l-5.03.1v8.59v8.59l9.67-.2c9.57-.15,9.72-.15,11.67-1.46Z" fill="#0153dc"/><path d="M348.63,257.57v-22.22h5.13h5.13v22.22v22.22h-5.13-5.13v-22.22Z" fill="#0153dc"/><path d="M450.98,227.78c-.93-4.88-2.49-9.67-3.71-11.38-1.42-2-5.18-4.15-8.69-5.03-2-.49-2.1-.54-1.37-1.37.39-.44,1.86-1.12,3.17-1.46c4.59-1.17,7.47-4.05,9.13-9.08c1.37-4.15,2.59-4.25,3.71-.34c1.76,6.01,5.32,8.79,12.89,10.11c2,.34,3.76.73,3.91.88.15.1-.83.39-2.1.54-3.81.54-8.79,2.29-10.6,3.81-2.29,1.86-4.05,5.71-5.13,10.94-.88,4.25-.88,4.3-1.22,2.39l.01-.01Z" fill="#0153dc"/><path d="M350.73,227.59c-2-1.27-2.59-2.39-2.59-5.18c0-1.95.24-2.54,1.66-3.96c1.46-1.46,1.95-1.66,4.35-1.66c2.34,0,2.88.2,4.15,1.46c3.86,3.86,1.76,9.62-3.66,10.11-1.76.15-2.73-.05-3.91-.78v.01Z" fill="#0153dc"/></g><g><path d="M77.2,280.22c-6.45-.83-13.13-3.71-17.38-7.47l-2.39-2.1l2.88-3.22c1.61-1.81,3.22-3.27,3.61-3.27.34,0,1.42.68,2.39,1.51c2.54,2.25,7.96,4.69,11.91,5.32c6.3,1.07,11.57-.05,14.94-3.13c3.42-3.08,3.42-8.2,0-11.38-1.66-1.56-3.81-2.34-11.72-4.3-11.87-2.93-14.26-3.91-17.97-7.37-3.32-3.13-4.59-6.2-4.59-11.43-.05-3.56.15-4.59,1.32-7.08c2.29-4.93,6.25-8.3,12.06-10.3c2.2-.73,4.05-.93,10.01-.93c6.93.05,7.52.1,11.23,1.51c4.15,1.61,6.74,3.08,9.42,5.42l1.56,1.37-3.03,3.52-3.03,3.52-1.81-1.46c-4.79-3.81-12.16-5.76-18.07-4.79-5.96.93-9.23,4-9.23,8.54c0,5.13,2.98,7.13,14.89,9.96c10.16,2.44,13.96,4.05,17.19,7.28c3.42,3.42,4.3,5.81,4.3,11.77c0,4.64-.15,5.37-1.37,7.91-2.54,5.22-8.5,9.13-15.82,10.4-4.2.78-6.64.83-11.33.2h.03Z" fill="#031846"/><path d="M205.62,279.98c-9.57-2.05-16.65-9.47-18.16-19.04-1.17-7.18,1.46-14.79,6.79-19.87c5.03-4.74,10.11-6.45,18.12-6.1c5.91.29,9.91,1.95,14.16,5.96c5.18,4.98,7.13,10.21,6.79,18.21-.2,4.54-.39,5.32-2,8.64-3.22,6.45-9.81,11.33-16.94,12.45-3.96.63-4.83.63-8.74-.24l-.02-.01Zm11.04-10.11c5.37-2.73,8.15-8.79,6.93-15.09-2.93-14.84-23.49-14.79-26.32.1-.93,4.98,1.27,11.13,5.03,13.77c4.25,3.03,9.81,3.52,14.36,1.22Z" fill="#031846"/><path d="M129.39,279.39c-3.47-1.17-4.59-1.76-7.67-4.1-10.35-7.91-11.33-24.41-1.95-33.69c4.64-4.64,10.06-6.74,17.29-6.74c11.91,0,20.9,7.91,22.61,19.87c1.37,9.86-3.71,19.04-13.04,23.49-3.56,1.71-4.1,1.81-9.18,1.9-4.15.1-6.01-.05-8.06-.73Zm11.23-8.69c3.32-.98,7.81-5.27,8.69-8.3c1.42-4.88.34-10.79-2.54-14.16-2.64-3.08-5.66-4.35-10.3-4.35-4.35,0-6.74.93-9.47,3.71-5.08,5.03-5.27,14.06-.44,19.29c3.71,4.05,8.69,5.42,14.06,3.81Z" fill="#031846"/><path d="M176.32,279.1c-2.49-.88-5.42-3.61-6.59-6.1-.98-2.2-1.03-2.93-1.17-29.1-.15-25-.1-26.9.73-27.44.49-.39,2.34-.63,4.83-.63h3.96l.24,26.37.2,26.37l1.17,1.22c.68.73,1.66,1.22,2.54,1.22h1.37v4.39v4.39l-2.78-.05c-1.56,0-3.56-.29-4.49-.63l-.01-.01Z" fill="#031846"/></g></svg>
